<svg xmlns="http://www.w3.org/2000/svg" xmlns:xlink="http://www.w3.org/1999/xlink" width="40" height="40" viewBox="0 0 40 40"><defs><linearGradient id="a" x1="0.5" y1="1" x2="0.5" gradientUnits="objectBoundingBox"><stop offset="0" stop-opacity="0"/><stop offset="0.101" stop-color="#181719" stop-opacity="0.039"/><stop offset="0.308" stop-color="#444246" stop-opacity="0.122"/><stop offset="0.508" stop-color="#676369" stop-opacity="0.204"/><stop offset="0.695" stop-color="#807b82" stop-opacity="0.278"/><stop offset="0.864" stop-color="#8f8a92" stop-opacity="0.345"/><stop offset="1" stop-color="#948f97" stop-opacity="0.4"/></linearGradient><clipPath id="c"><rect width="40" height="40"/></clipPath></defs><g id="b" clip-path="url(#c)"><rect width="40" height="40" fill="#fff"/><g transform="translate(-113 -467)"><rect width="38" height="38" transform="translate(114 468)" fill="#97ecc7"/><g transform="translate(115.657 470.273)"><g transform="translate(0 0)"><path d="M40.853,30.682s4.7-.983,4.165-1.533-8.331-.29-8.331-.29a19.515,19.515,0,0,1-6.361-1.845c-3.606-1.943-7.193-5.385-7.56-5.354-1.235-.809-2.973-1.72-2.973-1.72L19.6,17.067c.486-1.189,3.231-1,3.231-1a1.974,1.974,0,0,0-1.151-1.289,16.684,16.684,0,0,0-2.168-.477l-1.551-.953c-2.522-.9-3.9-.046-3.9-.046l-.014.018-.044.025a17.43,17.43,0,0,0-1.934,2.863L11.06,23.352l-.444,3.01c0,.018,0,.041.007.061h0c0,.01,0,.024,0,.035s0,.036.006.056a18.829,18.829,0,0,0,1.9,4.156c1.161,2.135,2.419,4.216,2.421,4.22l.039.021.01.017s.967.516,1.874.957a11.66,11.66,0,0,0,1.261.557l.023.007.034.012c.1.031.2.058.3.087.121.036.242.073.365.105.039.01.08.019.119.029q.177.045.356.086c0,.009-.007.016-.008.025a5.7,5.7,0,0,0,.826,3.557L18.14,45.5l-.006,0-.12.067a2,2,0,0,1-.37.133,5.817,5.817,0,0,1-1.3.167,2.459,2.459,0,0,0-1.426.265.878.878,0,0,0-.2.2,1.079,1.079,0,0,0-.106.187c-.042.106-.06.167-.06.167a.018.018,0,0,0,.006.019.015.015,0,0,0,.021,0s.036-.055.106-.14a1,1,0,0,1,.138-.129.7.7,0,0,1,.2-.122,2.436,2.436,0,0,1,1.3.034,5.451,5.451,0,0,0,1.458-.022,2.4,2.4,0,0,0,.483-.133c.033.024.068.045.106.067a.852.852,0,0,0,.222.089,2.063,2.063,0,0,0,.766.063c.262-.013.522-.046.784-.063a.566.566,0,0,1,.574.234.4.4,0,0,1,.05.106.016.016,0,0,0,.013.011.016.016,0,0,0,.018-.013.413.413,0,0,0-.007-.13.557.557,0,0,0-.044-.148.594.594,0,0,0-.118-.17.876.876,0,0,0-.467-.217,4.534,4.534,0,0,1-1.36-.259c-.183-.087-.112-.135-.1-.232l3.657-8.268a.345.345,0,0,0,.015-.1,15.334,15.334,0,0,0,3.166-.209A6.477,6.477,0,0,0,27.868,40.5L26.446,45.5a.187.187,0,0,0-.027.01l-.12.067a1.989,1.989,0,0,1-.37.133,5.822,5.822,0,0,1-1.3.167,2.458,2.458,0,0,0-1.426.265.862.862,0,0,0-.2.2,1.074,1.074,0,0,0-.106.187c-.042.106-.06.167-.06.167a.018.018,0,0,0,.006.019.015.015,0,0,0,.022,0s.036-.055.106-.14a.983.983,0,0,1,.138-.129.692.692,0,0,1,.2-.122,2.436,2.436,0,0,1,1.3.034,5.452,5.452,0,0,0,1.458-.022,2.4,2.4,0,0,0,.483-.133c.033.024.068.045.106.067a.852.852,0,0,0,.222.089,2.06,2.06,0,0,0,.765.063c.262-.013.523-.046.784-.063a.565.565,0,0,1,.574.234.382.382,0,0,1,.05.106.016.016,0,0,0,.013.011.016.016,0,0,0,.018-.013.413.413,0,0,0-.007-.13.571.571,0,0,0-.043-.148.585.585,0,0,0-.118-.17.88.88,0,0,0-.467-.217,4.534,4.534,0,0,1-1.36-.259c-.188-.09-.106-.138-.1-.241l2.229-6.384a.2.2,0,0,0,0-.108,6.292,6.292,0,0,1-.133-3.054.186.186,0,0,0-.019-.138,10.629,10.629,0,0,0,1.3-.747,7.534,7.534,0,0,0,1.786-1.95l.021-.032c.5.034,1.009.065,1.515.092,0,0,8.012,5.329,10.049,5.329.843,0-5.309-5.1-5.309-5.1C41.452,33.549,42.349,31.311,40.853,30.682Z" transform="translate(-10.615 -12.937)" fill="#3c3c3c"/><g transform="translate(0 0)"><path d="M30.6,65.348a.152.152,0,0,0-.145-.152,12.566,12.566,0,0,1-2.123-.28.155.155,0,0,0-.122.025.153.153,0,0,0-.062.108,4.511,4.511,0,0,0,.667,2.84l-1.69,4.273.381.163,3.084-6.9A.27.27,0,0,0,30.6,65.348Z" transform="translate(-19.532 -39.192)" fill="#323232"/><path d="M71.8,49.25l-2.688.212L68.442,47.8s6.293-.2,6.722.231S71.8,49.25,71.8,49.25Z" transform="translate(-40.752 -31.667)" fill="#323232"/><path d="M28.046,29.041a6.14,6.14,0,0,1-1.45,1.591,8.648,8.648,0,0,1-1.174.67,10.251,10.251,0,0,1-2.288.765A12.439,12.439,0,0,1,20,32.323a12.762,12.762,0,0,1-2.151-.271c-.38-.08-.752-.175-1.113-.289a28.211,28.211,0,0,1-2.576-1.223c0-.007-3.492-5.65-3.535-6.789L11.8,15.6a13.91,13.91,0,0,1,1.56-2.285,3.812,3.812,0,0,1,3.144.019l1.255.754a13.563,13.563,0,0,1,1.751.37,1.576,1.576,0,0,1,.933,1.023s-2.215-.14-2.6.812l.164,2.292a29.008,29.008,0,0,1,2.851,1.66S26.851,28.972,28.046,29.041Z" transform="translate(-10.622 -12.983)" fill="#3c3c3c"/><path d="M69.888,59.813c-1.643,0-8.108-4.255-8.108-4.255L63.3,54.5l2.3,1.245S70.568,59.813,69.888,59.813Z" transform="translate(-36.513 -34.619)" fill="#323232"/><path d="M28,29.045a6.126,6.126,0,0,1-1.458,1.583,8.727,8.727,0,0,1-1.178.664,10.243,10.243,0,0,1-2.292.752,12.447,12.447,0,0,1-3.133.238A12.781,12.781,0,0,1,17.794,32c-.38-.083-.752-.18-1.112-.3a28.106,28.106,0,0,1-2.569-1.239c0-.006-3.464-5.67-3.5-6.808l1.215-8.148A13.918,13.918,0,0,1,13.4,13.23a3.809,3.809,0,0,1,3.144.037l1.252.761a13.52,13.52,0,0,1,1.749.381,1.579,1.579,0,0,1,.929,1.029s-2.215-.152-2.607.8l.153,2.293A29.19,29.19,0,0,1,20.86,20.2S26.809,28.969,28,29.045Z" transform="translate(-10.612 -12.937)" opacity="0.5" fill="url(#a)"/><path d="M49.683,41.473a52.379,52.379,0,0,1-5.393-.021c-1.218-.043-2.527-.107-3.824-.182-.409-.021-.817-.046-1.223-.073-1.2-.076-2.352-.165-3.387-.256-1.123-.1-2.246-.176-3.37-.28a3.9,3.9,0,0,1-2.715-1.942c-.657-.974-1.561-2.389-1.489-3.637.14-2.441,2.941-3.485,4.885-2.876a.053.053,0,0,1,.02.006l.206.073c2.424.861,2.249,1.58,2.249,1.58s2.9,1.285,3.967,1.753c1.3.572.852,1.062.852,1.062s1,.477,2.429,1.12c.986.441,2.169.962,3.361,1.455s2.418.971,3.432,1.306C49.683,40.559,51.541,41.284,49.683,41.473Z" transform="translate(-15.2 -22.378)" fill="#504f54"/><path d="M20.911,18.463a2.242,2.242,0,0,1,2.484,0s-.451,1.353-1.43,1.353A1.008,1.008,0,0,1,20.911,18.463Z" transform="translate(-17.528 -15.43)" fill="#ff709d"/><path d="M46.663,65.6a4.971,4.971,0,0,1-.107-2.438.152.152,0,0,0-.211-.18c-.089.042-.179.083-.269.121a10.27,10.27,0,0,1-1.975.617l-.28.031a.152.152,0,0,0-.132.185,5.174,5.174,0,0,0,1.886,2.835l-1.2,4.172.387.126,1.9-5.381A.157.157,0,0,0,46.663,65.6Z" transform="translate(-28.537 -37.956)" fill="#3c3c3c"/><path d="M37.721,85.288s.014-.049.048-.134a.9.9,0,0,1,.085-.15.692.692,0,0,1,.161-.162,2,2,0,0,1,1.15-.211,4.724,4.724,0,0,0,1.051-.134,1.671,1.671,0,0,0,.3-.106l.1-.054a.274.274,0,1,1,.274.475,1.864,1.864,0,0,1-.561.184,4.414,4.414,0,0,1-1.176.017,1.986,1.986,0,0,0-1.047-.027.56.56,0,0,0-.162.1.786.786,0,0,0-.111.1c-.056.068-.085.112-.085.112a.012.012,0,0,1-.017,0A.013.013,0,0,1,37.721,85.288Z" transform="translate(-25.271 -51.525)" fill="#3c3c3c"/><path d="M47.649,85.3a.3.3,0,0,0-.04-.084.458.458,0,0,0-.463-.187c-.211.013-.421.04-.633.051a1.687,1.687,0,0,1-.617-.051.692.692,0,0,1-.179-.071.523.523,0,0,1-.151-.112.5.5,0,0,1-.056-.066.547.547,0,0,1-.039-.078.262.262,0,0,1-.02-.076c0-.024,0-.036,0-.036,0-.147.544-.371.536-.224,0,.085-.076.124.078.2a3.693,3.693,0,0,0,1.1.207.709.709,0,0,1,.377.173.467.467,0,0,1,.1.135.452.452,0,0,1,.035.118.326.326,0,0,1,.006.1.012.012,0,0,1-.015.01A.014.014,0,0,1,47.649,85.3Z" transform="translate(-29.586 -51.534)" fill="#3c3c3c"/><path d="M19.34,85.288s.015-.049.048-.134a.91.91,0,0,1,.085-.15.7.7,0,0,1,.161-.162,2,2,0,0,1,1.151-.211,4.72,4.72,0,0,0,1.05-.134,1.682,1.682,0,0,0,.3-.106l.1-.054a.274.274,0,1,1,.274.475,1.869,1.869,0,0,1-.561.184,4.414,4.414,0,0,1-1.176.017,1.986,1.986,0,0,0-1.047-.027.56.56,0,0,0-.162.1.762.762,0,0,0-.111.1c-.056.068-.085.112-.085.112a.012.012,0,0,1-.017,0A.014.014,0,0,1,19.34,85.288Z" transform="translate(-16.165 -51.525)" fill="#323232"/><path d="M29.27,85.3a.3.3,0,0,0-.04-.084.459.459,0,0,0-.463-.187c-.211.013-.421.04-.632.051a1.69,1.69,0,0,1-.618-.051.7.7,0,0,1-.179-.071.523.523,0,0,1-.151-.112.5.5,0,0,1-.056-.066.637.637,0,0,1-.039-.078.263.263,0,0,1-.02-.076c0-.024,0-.036,0-.036,0-.147.544-.371.536-.224-.005.085-.076.124.078.2a3.693,3.693,0,0,0,1.1.207.708.708,0,0,1,.377.173.474.474,0,0,1,.1.135.441.441,0,0,1,.035.118.326.326,0,0,1,.006.1.012.012,0,0,1-.015.01A.015.015,0,0,1,29.27,85.3Z" transform="translate(-19.576 -51.534)" fill="#323232"/></g></g></g></g></g></svg>